<svg width="20" height="20" viewBox="0 0 20 20" fill="none" xmlns="http://www.w3.org/2000/svg">
<path fill-rule="evenodd" clip-rule="evenodd" d="M12.6004 4.99946V6.4697H9.40177C8.60566 6.4697 7.84215 6.78596 7.27922 7.34889C6.71628 7.91183 6.40003 8.67534 6.40003 9.47145V11.7906C6.11998 12.0006 5.79618 12.2282 5.52488 12.4338C5.45 12.4874 5.36185 12.5194 5.27004 12.5263C5.17822 12.5333 5.08626 12.5149 5.00417 12.4732C4.92599 12.4287 4.8602 12.3654 4.81281 12.289C4.76542 12.2125 4.73794 12.1254 4.73288 12.0356V11.2917C4.50488 11.2947 4.2786 11.252 4.06734 11.1662C3.85607 11.0805 3.66408 10.9533 3.50264 10.7923C3.34121 10.6313 3.21359 10.4396 3.12729 10.2286C3.04099 10.0175 2.99774 9.79134 3.00009 9.56334V4.99946C3.00009 4.46911 3.21077 3.96047 3.58579 3.58546C3.96081 3.21044 4.46944 2.99976 4.9998 2.99976H10.6007C11.1307 3.00091 11.6387 3.21197 12.0134 3.58673C12.3882 3.9615 12.5993 4.46946 12.6004 4.99946Z" fill="#1B2738" fill-opacity="0.25"></path>
<path fill-rule="evenodd" clip-rule="evenodd" d="M15.003 7.47168H9.40205C8.87205 7.47284 8.36409 7.68389 7.98932 8.05866C7.61455 8.43342 7.4035 8.94139 7.40234 9.47139V13.7552C7.4035 14.2852 7.61455 14.7932 7.98932 15.1679C8.36409 15.5427 8.87205 15.7538 9.40205 15.7549H12.9026L14.5129 16.9057C14.5878 16.9593 14.6759 16.9913 14.7677 16.9983C14.8596 17.0052 14.9515 16.9868 15.0336 16.9451C15.1129 16.9019 15.1796 16.8389 15.2271 16.7622C15.2747 16.6855 15.3015 16.5977 15.3049 16.5075V15.7637C15.7571 15.7602 16.1896 15.5778 16.5078 15.2564C16.8259 14.935 17.0038 14.5006 17.0027 14.0484V9.47139C17.0027 8.94103 16.792 8.4324 16.417 8.05738C16.042 7.68236 15.5333 7.47168 15.003 7.47168ZM12.5044 13.1164H10.0015V12.1143H12.5001L12.5044 13.1164ZM14.5041 11.1167H10.0015V10.1146H14.5041V11.1167Z" fill="#1B2738" fill-opacity="0.25"></path>
</svg>