<svg width="20" height="20" viewBox="0 0 20 20" fill="none" xmlns="http://www.w3.org/2000/svg">
  <path d="M11.75 10.5833C11.4274 10.5833 11.1667 10.8447 11.1667 11.1666V13.5C11.1667 13.8214 10.9053 14.0833 10.5833 14.0833H8.8333V5.3333C8.8333 4.83513 8.51596 4.39005 8.03883 4.22438L7.86612 4.1666H10.5833C10.9053 4.1666 11.1667 4.4285 11.1667 4.75V6.5C11.1667 6.82193 11.4274 7.0833 11.75 7.0833C12.0726 7.0833 12.3333 6.82193 12.3333 6.5V4.75C12.3333 3.78517 11.5481 3 10.5833 3H4.3125C4.29028 3 4.2717 3.00993 4.25012 3.01282C4.22203 3.01047 4.19522 3 4.1667 3C3.52327 3 3 3.52316 3 4.1666V14.6666C3 15.1648 3.31734 15.6098 3.79446 15.7755L7.30504 16.9457C7.42403 16.9825 7.54237 17 7.6667 17C8.31013 17 8.8333 16.4767 8.8333 15.8333V15.25H10.5833C11.5481 15.25 12.3333 14.4648 12.3333 13.5V11.1666C12.3333 10.8447 12.0726 10.5833 11.75 10.5833Z" fill="#0067e1"/>
  <path d="M16.8291 8.42063L14.4957 6.08733C14.3289 5.9205 14.078 5.87029 13.8599 5.96066C13.6423 6.05113 13.5 6.264 13.5 6.49973V8.24973H11.1667C10.8446 8.24973 10.5833 8.511 10.5833 8.83303C10.5833 9.15507 10.8446 9.41633 11.1667 9.41633H13.5V11.1663C13.5 11.4021 13.6423 11.6149 13.8599 11.7054C14.078 11.7958 14.3289 11.7456 14.4957 11.5788L16.8291 9.24543C17.0571 9.01739 17.0571 8.64868 16.8291 8.42063Z" fill="#0067e1"/>
</svg>
