<svg width="20" height="20" viewBox="0 0 20 20" fill="none" xmlns="http://www.w3.org/2000/svg">
  <path d="M15.8682 3H11.7211C11.0962 3 10.5896 3.50657 10.5896 4.13145V8.27857C10.5896 8.90346 11.0962 9.41003 11.7211 9.41003H15.8682C16.4931 9.41003 16.9996 8.90346 16.9996 8.27857V4.13145C16.9996 3.50657 16.4931 3 15.8682 3Z" fill="#0067e1"></path>
  <path d="M8.27857 3H4.13145C3.50657 3 3 3.50657 3 4.13145V8.27857C3 8.90346 3.50657 9.41003 4.13145 9.41003H8.27857C8.90346 9.41003 9.41003 8.90346 9.41003 8.27857V4.13145C9.41003 3.50657 8.90346 3 8.27857 3Z" fill="#0067e1"></path>
  <path d="M15.8682 10.5897H11.7211C11.0962 10.5897 10.5896 11.0963 10.5896 11.7212V15.8683C10.5896 16.4932 11.0962 16.9997 11.7211 16.9997H15.8682C16.4931 16.9997 16.9996 16.4932 16.9996 15.8683V11.7212C16.9996 11.0963 16.4931 10.5897 15.8682 10.5897Z" fill="#0067e1"></path>
  <path d="M8.27857 10.5897H4.13145C3.50657 10.5897 3 11.0963 3 11.7212V15.8683C3 16.4932 3.50657 16.9997 4.13145 16.9997H8.27857C8.90346 16.9997 9.41003 16.4932 9.41003 15.8683V11.7212C9.41003 11.0963 8.90346 10.5897 8.27857 10.5897Z" fill="#0067e1"></path>
</svg>