<svg width="63" height="63" viewBox="0 0 63 63" fill="none" xmlns="http://www.w3.org/2000/svg">
                                        <path d="M27.8992 2.70145C30.0329 1.10069 32.9671 1.10069 35.1008 2.70145L46.3122 11.1128L57.7764 19.1762C59.9581 20.7108 60.8648 23.5014 60.0018 26.0253L55.4666 39.2872L51.3404 52.6821C50.5552 55.2312 48.1814 56.9559 45.5143 56.915L31.5 56.7L17.4857 56.915C14.8187 56.9559 12.4448 55.2312 11.6596 52.6821L7.53338 39.2872L2.99826 26.0253C2.13518 23.5014 3.04191 20.7108 5.22364 19.1762L16.6878 11.1128L27.8992 2.70145Z" fill="url(#paint0_linear_651_9546)"></path>
                                        <path d="M27.8992 8.70145C30.0329 7.10069 32.9671 7.10069 35.1008 8.70145L43.4908 14.9961L52.07 21.0303C54.2518 22.5649 55.1585 25.3555 54.2954 27.8794L50.9016 37.8039L47.8137 47.828C47.0285 50.3771 44.6546 52.1018 41.9876 52.0609L31.5 51.9L21.0124 52.0609C18.3454 52.1018 15.9715 50.3771 15.1863 47.8279L12.0984 37.8039L8.70459 27.8794C7.84152 25.3555 8.74824 22.5649 10.93 21.0303L19.5092 14.9961L27.8992 8.70145Z" fill="url(#paint1_linear_651_9546)"></path>
                                        <g clip-path="url(#clip0_651_9546)">
                                            <g filter="url(#filter0_d_651_9546)">
                                                <path d="M29.6 36C29.6 34.65 29.721 33.679 29.963 33.087C30.2043 32.4957 30.7167 31.85 31.5 31.15C32.1833 30.55 32.704 30.029 33.062 29.587C33.4207 29.1457 33.6 28.6417 33.6 28.075C33.6 27.3917 33.371 26.825 32.913 26.375C32.4543 25.925 31.8167 25.7 31 25.7C30.15 25.7 29.504 25.9583 29.062 26.475C28.6207 26.9917 28.3083 27.5167 28.125 28.05L25.55 26.95C25.9 25.8833 26.5417 24.9583 27.475 24.175C28.4083 23.3917 29.5833 23 31 23C32.75 23 34.096 23.4877 35.038 24.463C35.9793 25.4377 36.45 26.6083 36.45 27.975C36.45 28.8083 36.271 29.521 35.913 30.113C35.5543 30.7043 34.9917 31.375 34.225 32.125C33.4083 32.9083 32.9127 33.504 32.738 33.912C32.5627 34.3207 32.475 35.0167 32.475 36H29.6ZM31 42C30.45 42 29.9793 41.8043 29.588 41.413C29.196 41.021 29 40.55 29 40C29 39.45 29.196 38.979 29.588 38.587C29.9793 38.1957 30.45 38 31 38C31.55 38 32.021 38.1957 32.413 38.587C32.8043 38.979 33 39.45 33 40C33 40.55 32.8043 41.021 32.413 41.413C32.021 41.8043 31.55 42 31 42Z" fill="white"></path>
                                            </g>
                                        </g>
                                        <defs>
                                            <filter id="filter0_d_651_9546" x="21.55" y="19" width="18.9" height="27" filterUnits="userSpaceOnUse" color-interpolation-filters="sRGB">
                                                <feFlood flood-opacity="0" result="BackgroundImageFix"></feFlood>
                                                <feColorMatrix in="SourceAlpha" type="matrix" values="0 0 0 0 0 0 0 0 0 0 0 0 0 0 0 0 0 0 127 0" result="hardAlpha"></feColorMatrix>
                                                <feOffset></feOffset>
                                                <feGaussianBlur stdDeviation="2"></feGaussianBlur>
                                                <feComposite in2="hardAlpha" operator="out"></feComposite>
                                                <feColorMatrix type="matrix" values="0 0 0 0 0 0 0 0 0 0 0 0 0 0 0 0 0 0 0.25 0"></feColorMatrix>
                                                <feBlend mode="normal" in2="BackgroundImageFix" result="effect1_dropShadow_651_9546"></feBlend>
                                                <feBlend mode="normal" in="SourceGraphic" in2="effect1_dropShadow_651_9546" result="shape"></feBlend>
                                            </filter>
                                            <linearGradient id="paint0_linear_651_9546" x1="31.5" y1="0" x2="31.5" y2="63" gradientUnits="userSpaceOnUse">
                                                <stop stop-color="#EEEFEE"></stop>
                                                <stop offset="1" stop-color="#D7D8D7"></stop>
                                            </linearGradient>
                                            <linearGradient id="paint1_linear_651_9546" x1="31.5" y1="6" x2="31.5" y2="57" gradientUnits="userSpaceOnUse">
                                                <stop stop-color="#E4E4E4"></stop>
                                                <stop offset="1" stop-color="#CACACB"></stop>
                                            </linearGradient>
                                            <clipPath id="clip0_651_9546">
                                                <rect width="24" height="24" fill="white" transform="translate(19 20)"></rect>
                                            </clipPath>
                                        </defs>
                                    </svg>