

<svg width="18" height="18" viewBox="0 0 16 16" fill="none" xmlns="http://www.w3.org/2000/svg">
				<g opacity="0.4">
				<path d="M3.73329 12.4443H4.26663V5.75422H3.73329C3.45039 5.75422 3.17908 5.86266 2.97905 6.05568C2.77901 6.2487 2.66663 6.51049 2.66663 6.78346V11.415C2.66663 11.688 2.77901 11.9498 2.97905 12.1428C3.17908 12.3358 3.45039 12.4443 3.73329 12.4443ZM12.2666 5.75422H8.53329L9.13169 4.02098C9.18509 3.8663 9.19963 3.70158 9.17413 3.54041C9.14863 3.37923 9.08381 3.22621 8.98501 3.09394C8.88622 2.96168 8.75627 2.85395 8.60587 2.77964C8.45547 2.70532 8.28893 2.66655 8.11996 2.6665H7.99996L5.33329 5.46501V12.4443H11.2L13.2864 8.02061L13.3333 7.8127V6.78346C13.3333 6.51049 13.2209 6.2487 13.0209 6.05568C12.8208 5.86266 12.5495 5.75422 12.2666 5.75422Z" fill="#637381"></path>
				</g>
				</svg>