<svg width="25" height="25" viewBox="0 0 18 18" fill="none" xmlns="http://www.w3.org/2000/svg" class="hover_img hover_img23  svg_img_b">
<path d="M4.2 14H4.8V6.47368H4.2C3.88174 6.47368 3.57652 6.59568 3.35147 6.81282C3.12643 7.02997 3 7.32449 3 7.63158V12.8421C3 13.1492 3.12643 13.4437 3.35147 13.6609C3.57652 13.878 3.88174 14 4.2 14ZM13.8 6.47368H9.6L10.2732 4.52379C10.3333 4.34977 10.3496 4.16446 10.3209 3.98314C10.2923 3.80182 10.2193 3.62967 10.1082 3.48087C9.99704 3.33207 9.85085 3.21088 9.68165 3.12727C9.51245 3.04367 9.32509 3.00005 9.135 3H9L6 6.14832V14H12.6L14.9472 9.02337L15 8.78947V7.63158C15 7.32449 14.8736 7.02997 14.6485 6.81282C14.4235 6.59568 14.1183 6.47368 13.8 6.47368Z" fill="#54D62C"></path>
</svg>