<svg class="me-3" width="19" height="19" viewBox="0 0 19 19" fill="none" xmlns="http://www.w3.org/2000/svg">
<g clip-path="url(#clip0_3269_18595)">
<path d="M18.5 9.555C18.5 4.55409 14.4705 0.5 9.5 0.5C4.52947 0.5 0.5 4.55409 0.5 9.555C0.5 14.0746 3.79119 17.8207 8.09375 18.5V12.1725H5.80859V9.555H8.09375V7.56007C8.09375 5.29066 9.43742 4.03711 11.4932 4.03711C12.4779 4.03711 13.5078 4.21397 13.5078 4.21397V6.44235H12.373C11.2549 6.44235 10.9062 7.14036 10.9062 7.85648V9.555H13.4023L13.0033 12.1725H10.9062V18.5C15.2088 17.8207 18.5 14.0747 18.5 9.555Z" fill="white"></path>
</g>
<defs>
<clipPath id="clip0_3269_18595">
<rect width="18" height="18" fill="white" transform="translate(0.5 0.5)"></rect>
</clipPath>
</defs>
</svg>