<svg width="24" height="25" viewBox="0 0 24 25" fill="none" xmlns="http://www.w3.org/2000/svg">
										<path d="M11.9976 9.07294C10.345 9.07294 8.99636 10.4216 8.99636 12.0742C8.99636 13.7268 10.345 15.0755 11.9976 15.0755C13.6502 15.0755 14.9988 13.7268 14.9988 12.0742C14.9988 10.4216 13.6502 9.07294 11.9976 9.07294ZM20.999 12.0742C20.999 10.8314 21.0103 9.5998 20.9405 8.35921C20.8707 6.91824 20.5419 5.63937 19.4883 4.58566C18.4323 3.5297 17.1557 3.20323 15.7148 3.13343C14.472 3.06363 13.2404 3.07489 11.9998 3.07489C10.757 3.07489 9.52546 3.06363 8.28489 3.13343C6.84395 3.20323 5.5651 3.53195 4.51141 4.58566C3.45547 5.64162 3.129 6.91824 3.05921 8.35921C2.98941 9.60205 3.00067 10.8336 3.00067 12.0742C3.00067 13.3148 2.98941 14.5486 3.05921 15.7892C3.129 17.2302 3.45772 18.5091 4.51141 19.5628C5.56736 20.6187 6.84395 20.9452 8.28489 21.015C9.52771 21.0848 10.7593 21.0735 11.9998 21.0735C13.2426 21.0735 14.4742 21.0848 15.7148 21.015C17.1557 20.9452 18.4346 20.6165 19.4883 19.5628C20.5442 18.5068 20.8707 17.2302 20.9405 15.7892C21.0125 14.5486 20.999 13.3171 20.999 12.0742ZM11.9976 16.6921C9.44215 16.6921 7.3798 14.6297 7.3798 12.0742C7.3798 9.51874 9.44215 7.45635 11.9976 7.45635C14.553 7.45635 16.6154 9.51874 16.6154 12.0742C16.6154 14.6297 14.553 16.6921 11.9976 16.6921ZM16.8045 8.3457C16.2078 8.3457 15.726 7.86387 15.726 7.26722C15.726 6.67057 16.2078 6.18874 16.8045 6.18874C17.4011 6.18874 17.8829 6.67057 17.8829 7.26722C17.8831 7.4089 17.8554 7.54922 17.8012 7.68015C17.7471 7.81107 17.6677 7.93004 17.5675 8.03022C17.4673 8.1304 17.3483 8.20983 17.2174 8.26397C17.0865 8.3181 16.9462 8.34588 16.8045 8.3457Z" fill="#0367DD"></path>
										</svg>