<svg width="24" height="25" viewBox="0 0 24 25" fill="none" xmlns="http://www.w3.org/2000/svg">
										<path d="M18.759 6.35115C18.6188 6.28133 18.4823 6.2048 18.3501 6.12184C17.9658 5.87717 17.6135 5.58891 17.3006 5.26325C16.517 4.40022 16.2244 3.52475 16.1174 2.91236H16.1211C16.0315 2.40308 16.0684 2.07422 16.0749 2.07422H12.5075V15.3556C12.5075 15.5334 12.5075 15.7103 12.5002 15.8845C12.5002 15.9058 12.4974 15.9254 12.4965 15.9494C12.4965 15.9583 12.4965 15.9689 12.4937 15.9787V15.9867C12.4562 16.4631 12.2977 16.9234 12.0322 17.3269C11.7666 17.7305 11.4021 18.0651 10.9708 18.3011C10.5207 18.5477 10.0117 18.677 9.49396 18.6762C7.83257 18.6762 6.485 17.3715 6.485 15.76C6.485 14.1478 7.83257 12.843 9.49396 12.843C9.8087 12.843 10.1216 12.891 10.4206 12.9852L10.4253 9.48686C9.51705 9.37402 8.59441 9.44372 7.71557 9.69155C6.83674 9.93937 6.0208 10.3599 5.31926 10.9267C4.70441 11.4409 4.18747 12.0545 3.79171 12.7399C3.64126 12.9896 3.07269 13.9949 3.00439 15.6249C2.96101 16.5493 3.24991 17.5092 3.38744 17.9047V17.9136C3.47327 18.1465 3.80924 18.9429 4.35566 19.6139C4.79629 20.1525 5.31691 20.6257 5.90075 21.0182V21.0093L5.90905 21.0182C7.63505 22.147 9.55026 22.0732 9.55026 22.0732C9.88162 22.0599 10.992 22.0732 12.2528 21.4982C13.6511 20.86 14.4467 19.9099 14.4467 19.9099C14.9554 19.342 15.3599 18.6949 15.6429 17.9963C15.966 17.1786 16.0731 16.1991 16.0731 15.808V8.7607C16.1164 8.78559 16.6933 9.15267 16.6933 9.15267C16.6933 9.15267 17.524 9.66551 18.819 9.99881C19.7475 10.2361 21 10.2868 21 10.2868V6.87644C20.5616 6.92265 19.6709 6.78933 18.758 6.35204L18.759 6.35115Z" fill="#0367DD"></path>
										</svg>