<svg width="20" height="20" viewBox="0 0 20 20" fill="none" xmlns="http://www.w3.org/2000/svg">
  <path d="M16.9035 7.94621C16.6159 7.90444 16.3415 7.79832 16.1006 7.63577C15.8597 7.47322 15.6586 7.25842 15.5122 7.00736C15.3658 6.75631 15.278 6.47547 15.2552 6.18575C15.2324 5.89604 15.2753 5.60492 15.3806 5.33407C15.4475 5.157 15.4574 4.96341 15.4088 4.78045C15.3602 4.5975 15.2555 4.43434 15.1095 4.31385C14.4649 3.77253 13.7311 3.34728 12.9409 3.05707C12.761 2.99023 12.5646 2.98188 12.3796 3.0332C12.1947 3.08453 12.0306 3.19292 11.9109 3.34292C11.7306 3.57341 11.5003 3.75983 11.2372 3.88803C10.9742 4.01624 10.6855 4.08287 10.3929 4.08287C10.1003 4.08287 9.81152 4.01624 9.5485 3.88803C9.28549 3.75983 9.05512 3.57341 8.87487 3.34292C8.75512 3.19292 8.59108 3.08453 8.40612 3.0332C8.22117 2.98188 8.02473 2.99023 7.8448 3.05707C7.1152 3.32501 6.43305 3.70768 5.82408 4.19064C5.67058 4.31216 5.56001 4.47963 5.50857 4.66854C5.45714 4.85744 5.46753 5.05785 5.53823 5.24043C5.65195 5.51844 5.69894 5.81924 5.67542 6.1187C5.6519 6.41815 5.55853 6.70793 5.40279 6.96478C5.24705 7.22163 5.03328 7.4384 4.77863 7.59772C4.52398 7.75703 4.23554 7.85444 3.93644 7.88214C3.74226 7.9029 3.55987 7.98546 3.41614 8.11766C3.2724 8.24987 3.17491 8.42473 3.13801 8.6165C3.04624 9.07077 3.00001 9.53305 3.00001 9.9965C2.99934 10.3845 3.03066 10.7719 3.09365 11.1547C3.12501 11.3526 3.22069 11.5347 3.3659 11.6728C3.51111 11.8109 3.69777 11.8973 3.89701 11.9186C4.20268 11.9473 4.49703 12.0488 4.75542 12.2146C5.01382 12.3804 5.22874 12.6057 5.3822 12.8716C5.53566 13.1375 5.6232 13.4363 5.63748 13.743C5.65177 14.0496 5.59238 14.3553 5.4643 14.6343C5.38048 14.8158 5.35968 15.0201 5.40522 15.2147C5.45076 15.4094 5.56002 15.5832 5.71565 15.7087C6.35643 16.2402 7.08312 16.6586 7.86451 16.9458C7.96443 16.9804 8.06927 16.9987 8.17501 17C8.32 16.9997 8.46279 16.9646 8.59142 16.8977C8.72006 16.8308 8.83078 16.7341 8.9143 16.6156C9.08996 16.3596 9.32543 16.1504 9.60028 16.0062C9.87512 15.8619 10.181 15.7868 10.4914 15.7876C10.7922 15.788 11.0887 15.8585 11.3574 15.9937C11.6261 16.1289 11.8595 16.325 12.039 16.5663C12.1584 16.7268 12.3276 16.8433 12.5202 16.8977C12.7127 16.9521 12.9178 16.9413 13.1036 16.8669C13.8181 16.5794 14.4832 16.1819 15.075 15.689C15.2237 15.5661 15.3295 15.3992 15.3773 15.2124C15.4252 15.0255 15.4125 14.8283 15.3412 14.6491C15.2252 14.3746 15.1747 14.077 15.1935 13.7797C15.2123 13.4824 15.3 13.1935 15.4496 12.9359C15.5992 12.6783 15.8067 12.4589 16.0556 12.2952C16.3044 12.1315 16.588 12.0279 16.8838 11.9926C17.0756 11.966 17.254 11.8791 17.3931 11.7445C17.5322 11.6098 17.6249 11.4343 17.6576 11.2434C17.7367 10.8323 17.7796 10.4151 17.7857 9.9965C17.7858 9.55497 17.7446 9.1144 17.6625 8.68057C17.6292 8.49392 17.538 8.32251 17.4017 8.19068C17.2655 8.05885 17.0912 7.97331 16.9035 7.94621ZM12.8572 9.9965C12.8572 10.4839 12.7126 10.9603 12.4418 11.3656C12.1711 11.7708 11.7862 12.0867 11.3359 12.2732C10.8856 12.4597 10.3901 12.5085 9.91211 12.4134C9.43409 12.3183 8.99499 12.0836 8.65036 11.739C8.30572 11.3944 8.07102 10.9553 7.97593 10.4773C7.88085 9.99923 7.92965 9.50375 8.11617 9.05346C8.30268 8.60317 8.61854 8.2183 9.02379 7.94752C9.42904 7.67674 9.90548 7.53221 10.3929 7.53221C11.0464 7.53221 11.6732 7.79184 12.1354 8.25398C12.5975 8.71613 12.8572 9.34293 12.8572 9.9965Z" fill="#0067e1"/>
</svg>
