<svg width="42" height="42" viewBox="0 0 42 42" fill="none" xmlns="http://www.w3.org/2000/svg">
                                        <path d="M17.3992 2.70145C19.5329 1.10069 22.4671 1.10069 24.6008 2.70145L30.8748 7.40851L37.2903 11.9209C39.472 13.4555 40.3787 16.2461 39.5157 18.77L36.9777 26.1915L34.6687 33.6874C33.8834 36.2365 31.5096 37.9612 28.8425 37.9203L21 37.8L13.1575 37.9203C10.4904 37.9612 8.11656 36.2365 7.33131 33.6874L5.02225 26.1915L2.48435 18.77C1.62127 16.2461 2.528 13.4555 4.70974 11.9209L11.1252 7.40851L17.3992 2.70145Z" fill="url(#paint0_linear_651_9414)"></path>
                                        <path d="M17.3992 6.70145C19.5329 5.10069 22.4671 5.10069 24.6008 6.70145L28.9939 9.99737L33.486 13.157C35.6678 14.6915 36.5745 17.4822 35.7114 20.006L33.9344 25.2026L32.3175 30.4513C31.5323 33.0005 29.1585 34.7252 26.4914 34.6842L21 34.6L15.5086 34.6842C12.8415 34.7252 10.4677 33.0005 9.68245 30.4513L8.06563 25.2026L6.28857 20.006C5.4255 17.4821 6.33222 14.6915 8.51396 13.157L13.0061 9.99737L17.3992 6.70145Z" fill="url(#paint1_linear_651_9414)"></path>
                                        <g filter="url(#filter0_d_651_9414)">
                                            <path d="M17.9469 24.6605L14.008 20.7217L12.6667 22.0535L17.9469 27.3337L29.2817 15.9988L27.9499 14.667L17.9469 24.6605Z" fill="white"></path>
                                        </g>
                                        <defs>
                                            <filter id="filter0_d_651_9414" x="9.66675" y="14.667" width="22.615" height="18.6666" filterUnits="userSpaceOnUse" color-interpolation-filters="sRGB">
                                                <feFlood flood-opacity="0" result="BackgroundImageFix"></feFlood>
                                                <feColorMatrix in="SourceAlpha" type="matrix" values="0 0 0 0 0 0 0 0 0 0 0 0 0 0 0 0 0 0 127 0" result="hardAlpha"></feColorMatrix>
                                                <feOffset dy="3"></feOffset>
                                                <feGaussianBlur stdDeviation="1.5"></feGaussianBlur>
                                                <feComposite in2="hardAlpha" operator="out"></feComposite>
                                                <feColorMatrix type="matrix" values="0 0 0 0 0 0 0 0 0 0 0 0 0 0 0 0 0 0 0.25 0"></feColorMatrix>
                                                <feBlend mode="normal" in2="BackgroundImageFix" result="effect1_dropShadow_651_9414"></feBlend>
                                                <feBlend mode="normal" in="SourceGraphic" in2="effect1_dropShadow_651_9414" result="shape"></feBlend>
                                            </filter>
                                            <linearGradient id="paint0_linear_651_9414" x1="21" y1="0" x2="21" y2="42" gradientUnits="userSpaceOnUse">
                                                <stop stop-color="#D2EFFF"></stop>
                                                <stop offset="1" stop-color="#82BBDB"></stop>
                                            </linearGradient>
                                            <linearGradient id="paint1_linear_651_9414" x1="21" y1="4" x2="21" y2="38" gradientUnits="userSpaceOnUse">
                                                <stop stop-color="#A8CEEA"></stop>
                                                <stop offset="1" stop-color="#54A1CD"></stop>
                                            </linearGradient>
                                        </defs>
                                    </svg>