<svg width="28" height="28" viewBox="0 0 24 24" fill="none" xmlns="http://www.w3.org/2000/svg">
			<path fill-rule="evenodd" clip-rule="evenodd" d="M17.3043 11.841C17.3043 13.3252 17.9829 14.7262 19.1662 15.6847C19.4777 15.9405 19.6522 16.3035 19.6522 16.6875C19.6522 17.4113 19.0378 18 18.2826 18H5.36957C4.61435 18 4 17.4113 4 16.6875C4 16.3035 4.17452 15.9405 4.47896 15.6908C5.6693 14.7262 6.34783 13.3252 6.34783 11.841V9.75C6.34783 7.11075 8.39278 4.926 11.0435 4.56C11.4348 4.53731 12.2957 4.50555 12.6087 4.56C15.2586 4.926 17.3043 7.11075 17.3043 9.75V11.841Z" fill="#1B2738" fill-opacity="0.3"></path>
			<path d="M11.826 21C13.2433 21 14.4289 20.0317 14.7013 18.75H8.95068C9.22303 20.0317 10.4087 21 11.826 21Z" fill="#1B2738" fill-opacity="0.3"></path>
			</svg>