<svg width="16" height="16" viewBox="0 0 16 16" fill="none" xmlns="http://www.w3.org/2000/svg">
		<path fill-rule="evenodd" clip-rule="evenodd" d="M12.2962 0.800568H3.83167C3.0307 0.802315 2.26303 1.12127 1.69665 1.68765C1.13028 2.25403 0.811317 3.0217 0.80957 3.82267V10.2967C0.811317 11.0977 1.13028 11.8654 1.69665 12.4317C2.26303 12.9981 3.0307 13.3171 3.83167 13.3188H9.12201L11.5556 15.058C11.6687 15.139 11.802 15.1874 11.9407 15.1978C12.0795 15.2083 12.2184 15.1806 12.3425 15.1175C12.4623 15.0523 12.5631 14.957 12.6349 14.8411C12.7068 14.7252 12.7473 14.5926 12.7525 14.4562V13.332C13.436 13.3268 14.0895 13.0512 14.5704 12.5654C15.0512 12.0796 15.3201 11.4233 15.3183 10.7398V3.82267C15.3183 3.02116 14.9999 2.25248 14.4332 1.68572C13.8664 1.11897 13.0977 0.800568 12.2962 0.800568ZM8.52023 9.33123H4.73764V7.81687H8.51362L8.52023 9.33123ZM11.5423 6.30913H4.73764V4.79477H11.5423V6.30913Z" fill="#1B2738" fill-opacity="0.25"></path>
		</svg>