<svg width="24" height="24" viewBox="0 0 24 24" fill="none" xmlns="http://www.w3.org/2000/svg">
		<path fill-rule="evenodd" clip-rule="evenodd" d="M15.1201 5.99938V7.76367H11.2817C10.3264 7.76367 9.41019 8.14317 8.73467 8.8187C8.05915 9.49422 7.67964 10.4104 7.67964 11.3658V14.1487C7.34359 14.4008 6.95502 14.6738 6.62947 14.9206C6.53961 14.9849 6.43383 15.0233 6.32365 15.0316C6.21347 15.04 6.10312 15.0179 6.00462 14.9679C5.9108 14.9145 5.83185 14.8385 5.77498 14.7468C5.71811 14.655 5.68513 14.5505 5.67906 14.4428V13.5501C5.40547 13.5536 5.13393 13.5024 4.88041 13.3995C4.62689 13.2966 4.3965 13.144 4.20278 12.9508C4.00906 12.7576 3.85592 12.5276 3.75236 12.2743C3.64879 12.021 3.5969 11.7496 3.59972 11.476V5.99938C3.59972 5.36295 3.85254 4.75259 4.30256 4.30257C4.75258 3.85255 5.36294 3.59973 5.99936 3.59973H12.7205C13.3565 3.60112 13.966 3.85438 14.4157 4.3041C14.8655 4.75382 15.1187 5.36338 15.1201 5.99938Z" fill="#1B2738" fill-opacity="0.25"></path>
		<path fill-rule="evenodd" clip-rule="evenodd" d="M18.0026 8.96606H11.2815C10.6455 8.96745 10.0359 9.22072 9.58621 9.67044C9.13649 10.1202 8.88322 10.7297 8.88184 11.3657V16.5063C8.88322 17.1423 9.13649 17.7519 9.58621 18.2016C10.0359 18.6513 10.6455 18.9046 11.2815 18.906H15.4822L17.4145 20.2869C17.5044 20.3512 17.6101 20.3896 17.7203 20.398C17.8305 20.4063 17.9408 20.3842 18.0393 20.3342C18.1345 20.2824 18.2145 20.2068 18.2716 20.1147C18.3286 20.0226 18.3608 19.9173 18.3649 19.8091V18.9165C18.9076 18.9123 19.4266 18.6934 19.8083 18.3077C20.1901 17.922 20.4036 17.4008 20.4022 16.8581V11.3657C20.4022 10.7293 20.1494 10.1189 19.6994 9.6689C19.2494 9.21888 18.639 8.96606 18.0026 8.96606ZM15.0043 15.7397H12.0009V14.5372H14.9991L15.0043 15.7397ZM17.404 13.34H12.0009V12.1376H17.404V13.34Z" fill="#1B2738" fill-opacity="0.25"></path>
		</svg>