<svg class="sbg_margin_wi_mb" width="17" height="20" viewBox="0 0 16 15" fill="none" xmlns="http://www.w3.org/2000/svg" id="hover_img_none"><path d="M13.8668 0.889541L13.1335 0.88954L13.1335 10.0884L13.8668 10.0884C14.2558 10.0884 14.6289 9.93927 14.9039 9.67387C15.179 9.40846 15.3335 9.0485 15.3335 8.67317L15.3335 2.30474C15.3335 1.92941 15.179 1.56945 14.9039 1.30404C14.6289 1.03864 14.2558 0.889541 13.8668 0.889541ZM2.1335 10.0884L7.26683 10.0884L6.44403 12.4716C6.37061 12.6843 6.35061 12.9108 6.38568 13.1324C6.42074 13.354 6.50987 13.5644 6.64571 13.7463C6.78156 13.9281 6.96024 14.0762 7.16704 14.1784C7.37383 14.2806 7.60283 14.3339 7.83516 14.334L8.00016 14.334L11.6668 10.486L11.6668 0.88954L3.60016 0.88954L0.731363 6.97209L0.66683 7.25796L0.66683 8.67316C0.66683 9.0485 0.821353 9.40846 1.09641 9.67387C1.37146 9.93927 1.74451 10.0884 2.1335 10.0884Z" fill="#637381" fill-opacity="0.3"></path></svg>