<svg id="hide-svg" style="" width="18" height="14" viewBox="0 0 18 14" fill="none" xmlns="http://www.w3.org/2000/svg">
					<path d="M2.925 6.10329e-09H15.075C15.8221 -4.75534e-05 16.5409 0.27786 17.084 0.776713C17.6271 1.27557 17.9532 1.95754 17.9955 2.68275L18 2.84375V11.1562C18 11.8826 17.7142 12.5815 17.2011 13.1095C16.688 13.6374 15.9865 13.9545 15.2406 13.9956L15.075 14H2.925C2.17788 14 1.45905 13.7221 0.915992 13.2233C0.37293 12.7244 0.0467988 12.0425 0.00450011 11.3173L6.27767e-09 11.1562V2.84375C-4.89121e-05 2.11738 0.285799 1.41853 0.798905 0.890548C1.31201 0.362571 2.01347 0.0454988 2.7594 0.00437511L2.925 6.10329e-09ZM16.65 4.70138L9.315 8.45512C9.23218 8.49766 9.14115 8.52297 9.04772 8.52945C8.95429 8.53593 8.86049 8.52343 8.7723 8.49275L8.6859 8.456L1.35 4.70225V11.1562C1.35001 11.5405 1.49865 11.9108 1.76641 12.1935C2.03417 12.4762 2.40147 12.6506 2.7954 12.6822L2.925 12.6875H15.075C15.4704 12.6875 15.8513 12.5428 16.1421 12.2823C16.4329 12.0218 16.6123 11.6645 16.6446 11.2814L16.65 11.1562V4.70138ZM15.075 1.3125H2.925C2.52973 1.31251 2.14891 1.45702 1.85815 1.71734C1.56738 1.97767 1.38793 2.33476 1.3554 2.71775L1.35 2.84375V3.21912L9 7.133L16.65 3.21825V2.84375C16.65 2.45932 16.5012 2.08897 16.2333 1.80626C15.9653 1.52354 15.5978 1.34916 15.2037 1.31775L15.075 1.3125Z" fill="#637381"></path>
					</svg>