<svg class="sbg_margin_wi_mb"  viewBox="0 0 16 15" fill="none" xmlns="http://www.w3.org/2000/svg" id="hover_img_none"><path d="M2.13317 14.1105H2.8665V4.91163H2.13317C1.74419 4.91163 1.37113 5.06073 1.09608 5.32613C0.821027 5.59154 0.666504 5.9515 0.666504 6.32683V12.6953C0.666504 13.0706 0.821027 13.4306 1.09608 13.696C1.37113 13.9614 1.74419 14.1105 2.13317 14.1105ZM13.8665 4.91163H8.73317L9.55597 2.52842C9.62939 2.31573 9.64939 2.08925 9.61432 1.86763C9.57926 1.64602 9.49013 1.43561 9.35429 1.25375C9.21844 1.07188 9.03976 0.923754 8.83296 0.821572C8.62617 0.71939 8.39717 0.666074 8.16484 0.666016H7.99984L4.33317 4.51396V14.1105H12.3998L15.2686 8.02791L15.3332 7.74204V6.32683C15.3332 5.9515 15.1786 5.59154 14.9036 5.32613C14.6285 5.06073 14.2555 4.91163 13.8665 4.91163Z" fill="#637381" fill-opacity="0.3"></path></svg>