<svg class="me-3" width="18" height="19" viewBox="0 0 18 19" fill="none" xmlns="http://www.w3.org/2000/svg">
					<path d="M17.8249 7.73735H17.1V7.7H9V11.3H14.0864C13.3443 13.3956 11.3503 14.9 9 14.9C6.01785 14.9 3.6 12.4822 3.6 9.5C3.6 6.51785 6.01785 4.1 9 4.1C10.3765 4.1 11.6289 4.6193 12.5824 5.46755L15.1281 2.9219C13.5207 1.42385 11.3706 0.5 9 0.5C4.02975 0.5 0 4.52975 0 9.5C0 14.4703 4.02975 18.5 9 18.5C13.9703 18.5 18 14.4703 18 9.5C18 8.89655 17.9379 8.3075 17.8249 7.73735Z" fill="white"></path>
					<path d="M1.03809 5.31095L3.99504 7.4795C4.79514 5.4986 6.73284 4.1 9.00039 4.1C10.3769 4.1 11.6293 4.6193 12.5828 5.46755L15.1285 2.9219C13.5211 1.42385 11.371 0.5 9.00039 0.5C5.54349 0.5 2.54559 2.45165 1.03809 5.31095Z" fill="white"></path>
					<path d="M9.00004 18.5003C11.3247 18.5003 13.437 17.6106 15.0341 16.1639L12.2486 13.8068C11.3146 14.5171 10.1734 14.9012 9.00004 14.9003C6.65914 14.9003 4.67149 13.4076 3.92269 11.3246L0.987793 13.5858C2.47729 16.5005 5.50219 18.5003 9.00004 18.5003Z" fill="white"></path>
					<path d="M17.825 7.7373H17.1V7.69995H9V11.3H14.0864C13.7314 12.2973 13.092 13.1689 12.2472 13.8069L12.2485 13.806L15.034 16.1631C14.8369 16.3422 18 14 18 9.49995C18 8.8965 17.9379 8.30745 17.825 7.7373Z" fill="white"></path>
					</svg>