<svg width="24" height="24" viewBox="0 0 24 24" fill="none" xmlns="http://www.w3.org/2000/svg">
			<path style="fill:#737886 !important;" d="M7.54941 20.978L7.88038 20.8855C8.19873 20.7965 8.38468 20.4663 8.29572 20.148L4.5117 6.60638C4.4583 6.41528 4.33117 6.25321 4.15828 6.15584C3.98539 6.05847 3.7809 6.03377 3.5898 6.08718L3.54705 6.09911C3.14908 6.21031 2.9166 6.62307 3.02779 7.02104L6.81191 20.5626C6.90086 20.881 7.23105 21.0669 7.54941 20.978Z" fill="#737886" fill-opacity="0.3"></path>
			<path style="fill:#737886 !important;" d="M20.8747 11.5146C19.6747 10.9163 18.5646 10.1525 17.5768 9.24575C17.4938 9.16974 17.4613 9.05307 17.4931 8.94509C17.9825 7.09348 18.346 5.21084 18.581 3.31011C18.6182 2.99395 18.4478 2.90096 18.268 3.11793C14.7407 7.33642 8.63768 2.34614 5.005 6.18029C5.04862 6.26195 5.08293 6.34824 5.10729 6.43755L7.56214 15.2279C11.201 11.4402 17.2823 16.3995 20.8034 12.1903C20.9832 11.9734 21.0173 11.5766 20.8747 11.5146Z" fill="#737886" fill-opacity="0.3"></path>
			</svg>