<svg width="14" height="15" viewBox="0 0 14 15" fill="none" xmlns="http://www.w3.org/2000/svg">
			<path d="M11.4361 11.23L13.3891 13.182C13.4802 13.2763 13.5306 13.4026 13.5294 13.5337C13.5283 13.6648 13.4757 13.7902 13.383 13.8829C13.2903 13.9756 13.1649 14.0282 13.0338 14.0293C12.9027 14.0305 12.7764 13.9801 12.6821 13.889L10.7291 11.936C9.45284 13.0294 7.80269 13.5861 6.1249 13.4891C4.4471 13.3921 2.87208 12.649 1.73033 11.4158C0.588583 10.1826 -0.031139 8.55511 0.00120526 6.87482C0.0335495 5.19454 0.715446 3.59209 1.90381 2.40373C3.09217 1.21537 4.69462 0.533469 6.3749 0.501125C8.05519 0.468781 9.6827 1.0885 10.9159 2.23025C12.1491 3.372 12.8922 4.94702 12.9892 6.62482C13.0862 8.30261 12.5295 9.95276 11.4361 11.229V11.23ZM6.50008 12.5C7.95877 12.5 9.35772 11.9205 10.3892 10.8891C11.4206 9.85764 12.0001 8.45869 12.0001 7C12.0001 5.54131 11.4206 4.14236 10.3892 3.11091C9.35772 2.07946 7.95877 1.5 6.50008 1.5C5.04139 1.5 3.64244 2.07946 2.61099 3.11091C1.57954 4.14236 1.00008 5.54131 1.00008 7C1.00008 8.45869 1.57954 9.85764 2.61099 10.8891C3.64244 11.9205 5.04139 12.5 6.50008 12.5Z" fill="#637381"></path>
			</svg>