<svg width="16" height="12" viewBox="0 0 16 12" fill="none" xmlns="http://www.w3.org/2000/svg"><path d="M16 11.3983C16 11.5579 15.9352 11.7109 15.8198 11.8238C15.7044 11.9366 15.5479 12 15.3847 12C15.2216 12 15.0651 11.9366 14.9497 11.8238C14.8343 11.7109 14.7695 11.5579 14.7695 11.3983C14.7675 9.64339 14.0538 7.96095 12.785 6.72007C11.5163 5.47918 9.79603 4.78117 8.00173 4.77918H2.10301L4.74859 7.35912C4.86412 7.47321 4.92893 7.62729 4.92893 7.78786C4.92893 7.94843 4.86412 8.10251 4.74859 8.21659C4.63099 8.32781 4.47381 8.38997 4.31022 8.38997C4.14664 8.38997 3.98945 8.32781 3.87186 8.21659L0.180346 4.60618C0.0648128 4.4921 0 4.33802 0 4.17745C0 4.01688 0.0648128 3.8628 0.180346 3.74871L3.87186 0.138306C3.9914 0.0423511 4.14316 -0.00668541 4.29762 0.000734025C4.45208 0.00815346 4.59819 0.0714983 4.70754 0.178447C4.8169 0.285397 4.88166 0.428303 4.88925 0.57937C4.89684 0.730437 4.8467 0.878863 4.74859 0.995777L2.10301 3.57571H8.00173C10.1218 3.57969 12.1538 4.40513 13.6529 5.87128C15.152 7.33743 15.9959 9.32482 16 11.3983Z" fill="#737476"></path></svg>