<svg viewBox="0 0 32 32" xmlns="http://www.w3.org/2000/svg" fill="none"  height="50" width="50">
	<path d="M17.0518 19.5137L13.6451 17.6557C13.3181 17.9803 12.9023 18.2009 12.4502 18.2895C11.998 18.3781 11.5297 18.3309 11.1044 18.1538C10.679 17.9767 10.3156 17.6776 10.06 17.2943C9.80438 16.9109 9.66797 16.4605 9.66797 15.9997C9.66797 15.539 9.80438 15.0886 10.06 14.7052C10.3156 14.3219 10.679 14.0228 11.1044 13.8457C11.5297 13.6686 11.998 13.6214 12.4502 13.71C12.9023 13.7986 13.3181 14.0191 13.6451 14.3437L17.0518 12.4857C16.9349 11.9376 17.0193 11.3657 17.2895 10.8746C17.5597 10.3835 17.9976 10.0061 18.5232 9.81137C19.0487 9.61664 19.6269 9.6176 20.1518 9.81407C20.6767 10.0105 21.1134 10.3894 21.3819 10.8814C21.6505 11.3733 21.733 11.9455 21.6143 12.4933C21.4956 13.0411 21.1838 13.5279 20.7357 13.8646C20.2877 14.2014 19.7334 14.3656 19.1742 14.3272C18.615 14.2889 18.0883 14.0505 17.6904 13.6557L14.2838 15.5137C14.3516 15.834 14.3516 16.1649 14.2838 16.4851L17.6904 18.3437C18.0883 17.949 18.615 17.7106 19.1742 17.6723C19.7334 17.6339 20.2877 17.7981 20.7357 18.1349C21.1838 18.4716 21.4956 18.9584 21.6143 19.5062C21.733 20.054 21.6505 20.6262 21.3819 21.1181C21.1134 21.6101 20.6767 21.9889 20.1518 22.1854C19.6269 22.3819 19.0487 22.3829 18.5232 22.1881C17.9976 21.9934 17.5597 21.616 17.2895 21.1249C17.0193 20.6338 16.9349 20.0619 17.0518 19.5137Z" fill="#737886" fill-opacity="0.3"></path>
</svg>