<svg class="pe-1" style="" width="20" height="20" viewBox="0 0 20 20" fill="none" xmlns="http://www.w3.org/2000/svg">
<path d="M15.8334 3H10.9843C10.6635 3 10.2152 3.18584 9.98856 3.41231L3.34046 10.0604C2.88651 10.5138 2.88651 11.2572 3.34046 11.7101L8.29051 16.66C8.74343 17.1134 9.48612 17.1134 9.93972 16.6595L16.5878 10.0124C16.8143 9.78599 17.0001 9.33694 17.0001 9.01684V4.16673C17.0001 3.52517 16.4749 3 15.8334 3ZM13.4999 7.66674C12.8556 7.66674 12.3332 7.14382 12.3332 6.50001C12.3332 5.85514 12.8556 5.33328 13.4999 5.33328C14.1443 5.33328 14.6668 5.85514 14.6668 6.50001C14.6669 7.14382 14.1443 7.66674 13.4999 7.66674Z" fill="#1B2738" fill-opacity="0.25"></path>
</svg>